<svg width="189" height="250" viewBox="0 0 189 250" fill="none" xmlns="http://www.w3.org/2000/svg">
<path fill-rule="evenodd" clip-rule="evenodd" d="M135.715 83.0139L126.392 73.3409C122.034 69.2949 116.203 66.822 109.796 66.822C96.3013 66.822 85.3618 77.7913 85.3618 91.3224C85.3618 97.5688 87.693 103.269 91.5311 107.597L135.734 153.458L137.849 151.264C145.795 142.56 150.643 130.966 150.643 118.237C150.643 104.405 144.918 91.9131 135.715 83.0139L117.153 143.534L117.161 143.525C118.892 148.053 119.84 152.969 119.84 158.107C119.84 158.116 119.84 158.126 119.84 158.136C119.84 158.145 119.84 158.155 119.84 158.164C119.84 163.305 118.89 168.223 117.158 172.752L131.226 158.135L117.153 143.534" fill="white"/>
<path fill-rule="evenodd" clip-rule="evenodd" d="M51.1281 98.1851L53.2423 95.9911L97.4454 141.852C101.283 146.179 103.615 151.88 103.615 158.127C103.615 171.658 92.6756 182.627 79.1808 182.627C72.7738 182.627 66.9424 180.154 62.5846 176.108L53.2612 166.435C44.0585 157.536 38.334 145.044 38.334 131.212C38.334 118.483 43.1824 106.889 51.1281 98.1851L71.824 76.7125L71.8183 76.697C70.0854 81.2309 69.1371 86.147 69.1371 91.2848C69.1371 91.2943 69.1371 91.3041 69.1371 91.3136C69.1371 91.3234 69.1371 91.3328 69.1371 91.3423C69.1371 96.4828 70.0862 101.401 71.8157 105.924L57.7509 91.3136L71.824 76.7125" fill="white"/>
<path fill-rule="evenodd" clip-rule="evenodd" d="M33.9719 36.2045L33.9647 36.1785C32.586 41.0287 31.8501 46.1356 31.8501 51.4149C31.8501 67.0825 38.3327 81.2323 48.7555 91.3135C38.3327 101.395 31.8501 115.544 31.8501 131.212C31.8501 136.496 32.5875 141.608 33.9609 146.435L13.7662 125.459C5.24373 116.619 0 104.58 0 91.3135C0 78.0469 5.24373 66.0084 13.7662 57.1681L33.9719 36.2045ZM33.9719 36.2045L155.004 103.027L155.016 103.014C156.39 107.851 157.127 112.958 157.127 118.237C157.127 133.905 150.644 148.054 140.221 158.136C150.644 168.217 157.127 182.366 157.127 198.034C157.127 203.318 156.389 208.43 155.012 213.271L175.21 192.281C183.733 183.441 188.976 171.402 188.976 158.136C188.976 144.869 183.733 132.83 175.21 123.99L155.004 103.027" fill="white"/>
<path fill-rule="evenodd" clip-rule="evenodd" d="M135.715 233.257L126.392 242.93C122.034 246.976 116.203 249.449 109.796 249.449C96.3014 249.449 85.3619 238.48 85.3619 224.949C85.3619 218.702 87.6931 213.002 91.5312 208.675L135.734 162.814L137.849 165.007C145.795 173.711 150.643 185.305 150.643 198.034C150.643 211.867 144.919 224.358 135.715 233.257ZM53.2612 16.1923L62.5846 6.51932C66.9424 2.47334 72.7738 0.000392914 79.1808 0.000392914C92.6756 0.000392914 103.615 10.9693 103.615 24.5004C103.615 30.7472 101.284 36.4479 97.4458 40.7751L53.2423 86.6359L51.1281 84.4422C43.1824 75.7383 38.334 64.1446 38.334 51.4152C38.334 37.5829 44.0585 25.0915 53.2612 16.1923Z" fill="white"/>
</svg>
