<?xml version="1.0" encoding="UTF-8"?>
<!-- 2023-06-21 14:54:48 Generated by QCAD 3.23.0 SVG Exporter -->
<svg width="190mm" height="66mm" viewBox="-95 -33 190 66" version="1.1" xmlns="http://www.w3.org/2000/svg" style="stroke-linecap:round;stroke-linejoin:round;fill:none">
    <g transform="scale(1,-1)">
        <!-- Ellipse -->
        <!-- Ellipse -->
        <!-- Ellipse -->
        <!-- Ellipse -->
        <!-- Line -->
        <!-- Line -->
        <!-- Line -->
        <!-- Line -->
        <!-- Line -->
        <!-- Line -->
        <!-- Line -->
        <!-- Line -->
        <!-- Line -->
        <!-- Line -->
        <!-- Line -->
        <!-- Line -->
        <!-- Ellipse -->
        <!-- Ellipse -->
        <!-- Ellipse -->
        <!-- Ellipse -->
        <!-- Line -->
        <!-- Line -->
        <!-- Line -->
        <!-- Line -->
        <!-- Ellipse -->
        <!-- Ellipse -->
        <!-- Ellipse -->
        <!-- Ellipse -->
        <!-- Line -->
        <!-- Line -->
        <!-- Line -->
        <!-- Line -->
        <!-- Ellipse -->
        <!-- Ellipse -->
        <!-- Ellipse -->
        <!-- Ellipse -->
        <!-- Line -->
        <!-- Line -->
        <!-- Line -->
        <!-- Line -->
        <!-- Polyline -->
        <!-- Polyline -->
        <!-- Polyline -->
        <!-- Polyline -->
        <!-- Polyline -->
        <!-- Polyline -->
        <!-- Polyline -->
        <!-- Polyline -->
        <!-- Polyline -->
        <!-- Ellipse -->
        <!-- Ellipse -->
        <!-- Hatch -->
        <path d="M-59.092,11.0359 L-61.5588,13.5952 L-61.5587,13.5952 C-62.7117,14.6657 -64.2546,15.32 -65.9499,15.32 C-69.5203,15.32 -72.4147,12.4177 -72.4147,8.8376 C-72.4147,7.1849 -71.7979,5.6766 -70.7824,4.5317 L-59.087,-7.6024 L-58.5275,-7.0219 L-58.5275,-7.022 C-56.4252,-4.7192 -55.1425,-1.6515 -55.1425,1.7165 C-55.1425,5.3762 -56.657,8.6813 -59.092,11.0359 L-64.0034,-4.9768 L-64.0012,-4.9744 C-63.5433,-6.1723 -63.2924,-7.473 -63.2924,-8.8324 C-63.2924,-8.835 -63.2924,-8.8375 -63.2924,-8.8401 L-63.2924,-8.84 L-63.2924,-8.84 C-63.2924,-8.8425 -63.2924,-8.8451 -63.2924,-8.8476 C-63.2924,-10.2077 -63.5436,-11.509 -64.0019,-12.7073 L-60.2799,-8.84 L-64.0034,-4.9768" style="fill:white;fill-rule:evenodd;0"/>
        <!-- Hatch -->
        <path d="M-81.4724,7.0219 L-80.913,7.6024 L-69.2176,-4.5317 L-69.2175,-4.5317 C-68.2021,-5.6766 -67.5852,-7.1849 -67.5852,-8.8376 C-67.5852,-12.4177 -70.4796,-15.32 -74.0501,-15.32 C-75.7453,-15.32 -77.2882,-14.6657 -78.4412,-13.5952 L-80.908,-11.0359 L-80.908,-11.0359 C-83.3429,-8.6813 -84.8575,-5.3762 -84.8575,-1.7165 C-84.8575,1.6515 -83.5748,4.7192 -81.4725,7.022 L-75.9966,12.7032 L-75.9981,12.7073 C-76.4566,11.5077 -76.7075,10.207 -76.7075,8.8476 C-76.7075,8.8451 -76.7075,8.8425 -76.7075,8.84 L-76.7075,8.84 L-76.7075,8.8401 C-76.7075,8.8375 -76.7075,8.8349 -76.7075,8.8324 C-76.7075,7.4723 -76.4564,6.1711 -75.9988,4.9744 L-79.7201,8.84 L-75.9966,12.7032" style="fill:white;fill-rule:evenodd;0"/>
        <!-- Hatch -->
        <path d="M-86.0116,23.4209 L-86.0135,23.4278 C-86.3783,22.1445 -86.573,20.7933 -86.573,19.3965 C-86.573,15.2511 -84.8578,11.5073 -82.1001,8.84 L-82.1,8.84 L-82.1001,8.84 C-84.8578,6.1727 -86.573,2.429 -86.573,-1.7165 C-86.573,-3.1146 -86.3779,-4.467 -86.0145,-5.7443 L-91.3577,-0.1943 L-91.3577,-0.1943 C-93.6126,2.1447 -95,5.3299 -95,8.84 C-95,12.3501 -93.6126,15.5353 -91.3577,17.8743 Z L-53.9884,5.7408 L-53.9854,5.7443 C-53.6217,4.4645 -53.4269,3.1133 -53.4269,1.7165 C-53.4269,-2.429 -55.1422,-6.1727 -57.8999,-8.84 L-57.8999,-8.84 L-57.8999,-8.84 C-55.1422,-11.5074 -53.4269,-15.2511 -53.4269,-19.3965 C-53.4269,-20.7946 -53.622,-22.147 -53.9864,-23.4278 L-48.6423,-17.8743 L-48.6423,-17.8743 C-46.3873,-15.5353 -45,-12.3501 -45,-8.84 C-45,-5.3299 -46.3873,-2.1447 -48.6423,0.1943 L-53.9884,5.7408" style="fill:white;fill-rule:evenodd;0"/>
        <!-- Hatch -->
        <path d="M-59.092,-28.7159 L-61.5588,-31.2752 L-61.5587,-31.2752 C-62.7117,-32.3457 -64.2546,-33 -65.9499,-33 C-69.5203,-33 -72.4147,-30.0978 -72.4147,-26.5177 C-72.4147,-24.8649 -71.7979,-23.3566 -70.7824,-22.2117 L-59.087,-10.0777 L-58.5275,-10.6581 L-58.5275,-10.658 C-56.4252,-12.9609 -55.1425,-16.0285 -55.1425,-19.3965 C-55.1425,-23.0563 -56.657,-26.3613 -59.092,-28.7159 M-80.908,28.7159 L-78.4412,31.2752 L-78.4412,31.2752 C-77.2882,32.3457 -75.7453,33 -74.0501,33 C-70.4796,33 -67.5852,30.0978 -67.5852,26.5177 C-67.5852,24.8649 -68.2021,23.3566 -69.2175,22.2117 L-80.913,10.0777 L-81.4724,10.6581 L-81.4725,10.658 C-83.5748,12.9609 -84.8575,16.0285 -84.8575,19.3965 C-84.8575,23.0563 -83.3429,26.3613 -80.908,28.7159" style="fill:white;fill-rule:evenodd;0"/>
        <!-- Hatch -->
        <path d="M-0.5759,0.4705 L-0.0653,0.6702 L0.4169,0.931 L0.8634,1.2491 L1.2676,1.6196 L1.6232,2.0368 L1.8293,2.3358 L2.1053,2.8096 L2.3271,3.311 L2.4839,3.8029 L2.6063,4.3376 L2.6951,4.8788 L2.7501,5.4246 L2.7705,5.9284 L2.7564,6.4766 L2.6963,7.0217 L2.5906,7.5599 L2.4401,8.0873 L2.2459,8.6001 L2.2345,8.6266 L1.9845,9.1146 L1.6898,9.5771 L1.3531,10.01 L0.9774,10.4094 L0.6267,10.7224 L0.1918,11.0566 L-0.2667,11.3575 L-0.552,11.5214 L-1.0427,11.7663 L-1.5499,11.9751 L-1.8779,12.0879 L-2.4057,12.2369 L-2.9424,12.3503 L-3.1884,12.39 L-3.7331,12.4549 L-4.2804,12.4913 L-4.7074,12.5 L-15.3302,12.5 L-15.8719,12.4252 L-16.3732,12.2065 L-16.7964,11.8602 L-17.11,11.4122 L-17.2906,10.896 L-17.3302,10.5 L-17.3302,-10.5 L-17.2554,-11.0417 L-17.0367,-11.543 L-16.6904,-11.9662 L-16.2424,-12.2798 L-15.7262,-12.4604 L-15.3302,-12.5 L-3.8179,-12.5 L-3.2696,-12.4886 L-2.723,-12.4422 L-2.1806,-12.361 L-1.6444,-12.2453 L-1.1168,-12.0956 L-0.9115,-12.0273 L-0.4023,-11.8234 L0.0903,-11.5823 L0.5637,-11.3053 L1.0151,-10.9938 L1.4421,-10.6496 L1.4981,-10.6004 L1.8975,-10.2246 L2.2622,-9.815 L2.5892,-9.3748 L2.8762,-8.9075 L3.1208,-8.4166 L3.1214,-8.4152 L3.3151,-7.9021 L3.4667,-7.3751 L3.5752,-6.8375 L3.6399,-6.2929 L3.6604,-5.7448 L3.6597,-5.6667 L3.642,-5.1185 L3.587,-4.5728 L3.5821,-4.5366 L3.4832,-3.9972 L3.3626,-3.543 L3.1792,-3.0262 L2.9585,-2.5445 L2.6865,-2.0683 L2.387,-1.6382 L2.037,-1.2159 L1.7326,-0.8935 L1.3267,-0.5247 L1.0805,-0.3325 L0.6227,-0.0307 L0.2681,0.1586 L-0.2386,0.3681 Z M-21.8779,6.735 L-21.9921,7.2036 L-22.1614,7.7252 L-22.3746,8.2305 L-22.514,8.5078 L-22.7953,8.9786 L-23.1179,9.422 L-23.3699,9.7173 L-23.7555,10.1073 L-24.1715,10.4647 L-24.5549,10.7465 L-25.0183,11.0399 L-25.4982,11.3057 L-25.9927,11.5429 L-26.5004,11.7507 L-27.0193,11.9284 L-27.5011,12.0638 L-28.0352,12.1892 L-28.5737,12.2936 L-29.1159,12.377 L-29.6609,12.4392 L-30.2079,12.4801 L-30.7561,12.4996 L-31.1796,12.5 L-31.7281,12.5014 L-32.2764,12.4821 L-32.8235,12.4422 L-33.3687,12.3817 L-33.9112,12.3008 L-34.4503,12.1995 L-34.9852,12.0779 L-35.5152,11.9363 L-36.0086,11.785 L-36.5238,11.5967 L-37.0228,11.3692 L-37.5026,11.1036 L-37.9605,10.8016 L-38.3936,10.4651 L-38.7993,10.0961 L-39.1752,9.6967 L-39.3647,9.4696 L-39.6818,9.0222 L-39.9212,8.6105 L-40.1529,8.1135 L-40.3215,7.6494 L-40.4628,7.1195 L-40.5404,6.7047 L-40.6031,6.1598 L-40.6284,5.6211 L-40.6114,5.0729 L-40.5603,4.5268 L-40.513,4.1988 L-40.4038,3.6613 L-40.2593,3.1322 L-40.2276,3.032 L-40.0061,2.5307 L-39.71,2.0695 L-39.6938,2.0483 L-39.3469,1.6235 L-38.9901,1.2434 L-38.5744,0.8859 L-38.1197,0.5797 L-38.0489,0.5387 L-37.5722,0.2673 L-37.0853,0.0146 L-36.9509,-0.0511 L-36.4541,-0.2835 L-36.3736,-0.3173 L-35.8618,-0.5148 L-35.6263,-0.5962 L-35.1074,-0.7741 L-34.8441,-0.8624 L-34.3219,-1.0305 L-34.1272,-1.0902 L-33.6064,-1.2627 L-33.3729,-1.335 L-32.848,-1.4944 L-32.4354,-1.6182 L-31.9115,-1.7807 L-31.3883,-1.9458 L-30.8702,-2.1122 L-30.3528,-2.2945 L-29.8438,-2.4989 L-29.488,-2.6573 L-28.99,-2.8868 L-28.5198,-3.1688 L-28.0828,-3.5 L-27.8529,-3.707 L-27.5225,-4.1431 L-27.3125,-4.6483 L-27.2382,-5.1272 L-27.3068,-5.67 L-27.5097,-6.1781 L-27.8338,-6.6189 L-28.2583,-6.964 L-28.2802,-6.9775 L-28.7651,-7.2329 L-29.2843,-7.4083 L-29.3421,-7.4224 L-29.8801,-7.529 L-30.4248,-7.593 L-30.9704,-7.6141 L-31.5181,-7.5867 L-32.0604,-7.5056 L-32.5231,-7.3921 L-33.0367,-7.2009 L-33.5137,-6.9312 L-33.6322,-6.8476 L-34.043,-6.4851 L-34.1148,-6.4064 L-34.4381,-5.9642 L-34.4894,-5.8752 L-34.52,-5.8185 L-34.8385,-5.3739 L-35.2655,-5.0323 L-35.7691,-4.8191 L-36.3116,-4.7502 L-36.4259,-4.7548 L-40.0846,-5.0045 L-40.5949,-5.1864 L-40.9354,-5.6077 L-41.0063,-6.1448 L-41,-6.1831 L-40.8845,-6.7193 L-40.8677,-6.7859 L-40.7084,-7.3107 L-40.5071,-7.8208 L-40.3338,-8.1832 L-40.0603,-8.6586 L-39.7471,-9.1087 L-39.4405,-9.481 L-39.0604,-9.8764 L-38.6512,-10.2416 L-38.2153,-10.5744 L-38.1884,-10.5933 L-37.728,-10.8915 L-37.2516,-11.1634 L-36.7607,-11.4081 L-36.2568,-11.6248 L-35.7415,-11.8128 L-35.2165,-11.9716 L-35.0093,-12.0255 L-34.4752,-12.1506 L-33.9371,-12.2569 L-33.3955,-12.3442 L-32.8512,-12.4124 L-32.3048,-12.4614 L-31.7571,-12.4912 L-31.2086,-12.5017 L-30.953,-12.5 L-30.4044,-12.499 L-29.8562,-12.479 L-29.3091,-12.4401 L-28.7636,-12.3823 L-28.2204,-12.3056 L-27.6802,-12.2102 L-27.1436,-12.0962 L-26.816,-12.0169 L-26.2876,-11.8696 L-25.7686,-11.6922 L-25.2607,-11.4851 L-24.7655,-11.2492 L-24.2847,-10.9852 L-23.8199,-10.6939 L-23.6477,-10.5763 L-23.2121,-10.2432 L-22.8079,-9.8726 L-22.4382,-9.4675 L-22.106,-9.0312 L-21.814,-8.567 L-21.6303,-8.2182 L-21.4215,-7.7111 L-21.2497,-7.1902 L-21.1156,-6.6584 L-21.02,-6.1183 L-20.9634,-5.5728 L-20.946,-5.0246 L-20.9462,-4.9909 L-20.9675,-4.4429 L-21.0314,-3.8982 L-21.1375,-3.3601 L-21.2851,-2.8319 L-21.4234,-2.4422 L-21.6701,-1.9526 L-21.9694,-1.4932 L-22.3176,-1.0696 L-22.7104,-0.6871 L-22.8809,-0.5451 L-23.3162,-0.2114 L-23.7687,0.0987 L-24.2369,0.3844 L-24.321,0.4322 L-24.8068,0.6869 L-25.3017,0.9234 L-25.8051,1.1415 L-26.1924,1.2945 L-26.7059,1.4876 L-27.2206,1.6775 L-27.3146,1.7119 L-27.8314,1.8959 L-28.3512,2.0713 L-28.3718,2.0781 L-28.8938,2.2467 L-29.4169,2.412 L-29.5207,2.4443 L-30.0452,2.605 L-30.5711,2.7612 L-30.9181,2.8617 L-31.4484,3.0019 L-31.9602,3.1555 L-32.4741,3.347 L-32.8715,3.526 L-33.361,3.772 L-33.7994,4.1006 L-33.9768,4.2733 L-34.258,4.7418 L-34.3839,5.2735 L-34.3888,5.3656 L-34.3336,5.9107 L-34.3322,5.9175 L-34.1899,6.366 L-33.9268,6.7977 L-33.5495,7.1648 L-33.081,7.4482 L-32.652,7.6039 L-32.1165,7.7218 L-31.572,7.7872 L-31.1797,7.8015 L-30.6323,7.7783 L-30.0966,7.6633 L-29.588,7.4595 L-29.121,7.1728 L-29.0433,7.1137 L-28.6608,6.7213 L-28.3488,6.2708 L-28.3462,6.2663 L-28.0118,5.8336 L-27.5726,5.5076 L-27.0616,5.3128 L-26.517,5.2637 L-26.4698,5.2665 L-22.7849,5.528 L-22.2752,5.7113 L-21.9358,6.1335 L-21.8664,6.6708 Z M-11.0906,-7.69 L-11.0906,-2.3352 L-5.126,-2.3352 L-4.5812,-2.3899 L-4.1341,-2.5293 L-3.6581,-2.7998 L-3.3123,-3.1027 L-2.9754,-3.5342 L-2.7633,-3.9617 L-2.6209,-4.4907 L-2.5803,-5.0039 L-2.6249,-5.5499 L-2.7633,-6.0614 L-3.0124,-6.5489 L-3.3123,-6.9226 L-3.7333,-7.2727 L-4.1406,-7.496 L-4.6655,-7.6514 L-5.126,-7.69 Z M-6.0154,7.6726 L-5.4704,7.6203 L-5.0322,7.4873 L-4.5556,7.2181 L-4.2191,6.9226 L-3.882,6.4912 L-3.6697,6.0636 L-3.5273,5.5346 L-3.4866,5.0214 L-3.5312,4.4754 L-3.6697,3.9639 L-3.919,3.4765 L-4.2191,3.1027 L-4.6362,2.7481 L-5.0322,2.5293 L-5.557,2.3735 L-6.0154,2.3352 L-11.0906,2.3352 L-11.0906,7.6726 Z" style="fill:white;fill-rule:evenodd;0"/>
        <!-- Hatch -->
        <path d="M39.2263,7.7421 L38.6779,7.7361 L38.131,7.6944 L37.588,7.6171 L37.0511,7.5045 L36.5228,7.3571 L36.0053,7.1755 L35.5006,6.9606 L35.0111,6.7132 L34.5986,6.4721 L34.1431,6.1664 L33.7065,5.8344 L33.2903,5.4772 L32.8958,5.0961 L32.5245,4.6923 L32.1777,4.2674 L31.8566,3.8227 L31.5623,3.3599 L31.2963,2.8814 L31.0517,2.3905 L30.8353,1.8865 L30.6476,1.3711 L30.4894,0.8459 L30.4034,0.5034 L30.291,-0.0335 L30.2018,-0.5748 L30.1361,-1.1194 L30.0939,-1.6663 L30.0752,-2.2145 L30.0743,-2.3867 L30.0855,-2.9351 L30.1203,-3.4825 L30.1788,-4.0279 L30.2607,-4.5703 L30.3659,-5.1087 L30.4036,-5.2762 L30.5428,-5.8068 L30.7118,-6.3286 L30.9101,-6.84 L31.1371,-7.3393 L31.2963,-7.6503 L31.5633,-8.1294 L31.8581,-8.592 L32.1798,-9.0362 L32.5272,-9.4607 L32.8992,-9.8638 L33.2943,-10.2442 L33.7112,-10.6006 L34.1485,-10.9317 L34.5986,-11.2325 L35.0737,-11.5066 L35.5656,-11.7492 L36.0723,-11.9592 L36.5916,-12.1358 L37.1213,-12.2782 L37.6591,-12.3859 L38.2028,-12.4582 L38.75,-12.4951 L39.2263,-12.4981 L39.7748,-12.4873 L40.3224,-12.4558 L40.8685,-12.4037 L41.3823,-12.3357 L41.9216,-12.2354 L42.4527,-12.0984 L42.9352,-11.9394 L43.4419,-11.7295 L43.8452,-11.5246 L44.3099,-11.2335 L44.577,-11.0315 L44.982,-10.6619 L45.243,-10.3705 L45.5662,-9.9276 L45.766,-9.5867 L45.9254,-11.2946 L46.1199,-11.8002 L46.5496,-12.1301 L46.921,-12.2017 L50.6047,-12.2017 L51.1261,-12.0549 L51.4946,-11.6578 L51.6047,-11.2017 L51.6047,6.4283 L51.4579,6.9497 L51.0608,7.3182 L50.6047,7.4283 L46.9205,7.4283 L46.399,7.2815 L46.0306,6.8844 L45.9249,6.5218 L45.766,4.8308 L45.455,5.2824 L45.0994,5.6999 L44.703,6.0787 L44.2699,6.415 L43.8046,6.7051 L43.312,6.9461 L43.2482,6.9729 L42.74,7.1791 L42.2187,7.3498 L41.6869,7.4839 L41.5041,7.5211 L40.9632,7.6122 L40.4188,7.6794 L39.8719,7.7224 L39.3237,7.7413 L39.2263,7.7421 Z M17.8995,-6.9158 L17.3517,-6.8911 L16.8077,-6.8211 L16.2714,-6.7066 L15.7464,-6.5481 L15.4281,-6.4282 L14.9379,-6.1824 L14.4709,-5.8948 L14.0308,-5.5676 L13.6208,-5.2033 L13.3803,-4.9569 L13.0203,-4.5432 L12.6953,-4.1014 L12.5493,-3.8751 L12.2791,-3.3979 L12.0526,-2.8985 L11.974,-2.6918 L11.8043,-2.1703 L11.6796,-1.6362 L11.6463,-1.4446 L11.5714,-0.9013 L11.5335,-0.3541 L11.5287,0 L11.5427,0.5483 L11.5937,1.0944 L11.6463,1.4449 L11.755,1.9824 L11.9089,2.5088 L11.9742,2.6923 L12.1826,3.1995 L12.4355,3.6862 L12.5494,3.8754 L12.8564,4.3298 L13.1995,4.7577 L13.3803,4.9569 L13.7731,5.3396 L14.1955,5.6894 L14.3789,5.8244 L14.8418,6.1185 L15.3295,6.3691 L15.4572,6.4257 L15.9725,6.6133 L16.5026,6.7539 L16.5968,6.7736 L17.1394,6.854 L17.6864,6.8941 L17.8995,6.8988 L18.4471,6.8681 L18.9902,6.7919 L19.5251,6.6707 L20.048,6.5053 L20.5552,6.2969 L21.0434,6.0468 L21.1497,5.9853 L21.6019,5.6751 L22.0245,5.3255 L22.4139,4.9395 L22.6717,4.641 L23.0865,4.2852 L23.5886,4.0695 L24.1322,4.0136 L24.6677,4.1227 L24.7638,4.1612 L27.4782,5.5506 L27.8801,5.9136 L28.0318,6.4336 L27.8879,6.9557 L27.8528,7.0097 L27.5626,7.4751 L27.2495,7.9256 L26.9144,8.3598 L26.6065,8.7225 L26.231,9.1224 L25.8365,9.5036 L25.4241,9.8652 L24.9947,10.2065 L24.5493,10.5266 L24.1605,10.7805 L23.6852,11.0543 L23.1979,11.3061 L22.6996,11.5354 L22.1914,11.7418 L21.6743,11.9248 L21.2066,12.0679 L20.673,12.1951 L20.1346,12.3004 L19.5924,12.3837 L19.0473,12.4447 L18.5001,12.4833 L17.9518,12.4996 L17.8995,12.5 L17.3512,12.4861 L16.8038,12.45 L16.2583,12.392 L15.7157,12.312 L15.1766,12.2102 L14.72,12.1061 L14.1935,11.952 L13.6745,11.7745 L13.164,11.5739 L12.6629,11.3506 L12.1724,11.1052 L11.8582,10.9331 L11.3904,10.6467 L10.9373,10.3376 L10.5001,10.0063 L10.0798,9.6538 L9.6775,9.2809 L9.4425,9.0449 L9.0723,8.6401 L8.7214,8.2184 L8.3907,7.7809 L8.0807,7.3283 L7.7922,6.8617 L7.5915,6.5053 L7.3348,6.0206 L7.0997,5.525 L6.8867,5.0194 L6.6962,4.505 L6.5286,3.9827 L6.3842,3.4535 L6.2632,2.9185 L6.166,2.3786 L6.0927,1.835 L6.0435,1.2887 L6.0184,0.7407 L6.0174,0.1922 L6.0229,-0.0001 L6.03,-0.5486 L6.0577,-1.0964 L6.106,-1.6429 L6.1191,-1.7599 L6.1889,-2.304 L6.2825,-2.8445 L6.3957,-3.3632 L6.5314,-3.8947 L6.6915,-4.4194 L6.8759,-4.936 L6.8923,-4.9787 L7.0985,-5.487 L7.3286,-5.985 L7.5821,-6.4714 L7.5915,-6.4885 L7.8616,-6.9658 L8.1539,-7.43 L8.4677,-7.8799 L8.8023,-8.3146 L9.1569,-8.7331 L9.4425,-9.0429 L9.8329,-9.4282 L10.242,-9.7936 L10.6688,-10.1382 L11.1123,-10.461 L11.5712,-10.7614 L11.8582,-10.9333 L12.3449,-11.1864 L12.8419,-11.4184 L13.3486,-11.6287 L13.8637,-11.8171 L14.3866,-11.983 L14.9161,-12.1264 L15.4512,-12.2468 L15.9911,-12.3441 L16.5346,-12.418 L17.0808,-12.4685 L17.6287,-12.4954 L17.8995,-12.5 L18.4478,-12.4832 L18.995,-12.4443 L19.5402,-12.3834 L20.0824,-12.3007 L20.6209,-12.1961 L21.1548,-12.07 L21.2697,-12.0399 L21.7932,-11.8761 L22.3084,-11.6878 L22.8142,-11.4754 L23.3093,-11.2394 L23.7928,-10.9803 L24.1605,-10.763 L24.6213,-10.4653 L25.0664,-10.1447 L25.4947,-9.802 L25.905,-9.438 L26.2965,-9.0537 L26.6679,-8.6501 L27.0184,-8.2282 L27.3471,-7.789 L27.6531,-7.3338 L27.852,-7.0086 L28.0296,-6.4969 L27.9123,-5.9681 L27.5349,-5.5796 L27.4776,-5.549 L24.7661,-4.1615 L24.2377,-4.0221 L23.6918,-4.0469 L23.1782,-4.2336 L22.7438,-4.5651 L22.6716,-4.6447 L22.3089,-5.0561 L21.9111,-5.4336 L21.4812,-5.7741 L21.1556,-5.9938 L20.6733,-6.2548 L20.1707,-6.4744 L19.6516,-6.6511 L19.1194,-6.7836 L18.578,-6.871 L18.0311,-6.9127 Z M71.466,3.3227 L71.4332,3.4419 L71.255,3.9605 L71.022,4.4568 L70.9921,4.5118 L70.7,4.9758 L70.3573,5.4038 L70.2842,5.4833 L69.8895,5.8639 L69.4591,6.2037 L69.2994,6.3133 L68.8301,6.597 L68.3394,6.842 L68.0615,6.9596 L67.5464,7.148 L67.0216,7.3078 L66.4889,7.4383 L66.4444,7.4478 L65.9053,7.5492 L65.3623,7.6266 L65.065,7.6585 L64.5182,7.7022 L63.9703,7.7294 L63.4219,7.74 L63.3722,7.7402 L62.8237,7.7322 L62.2755,7.7103 L61.7281,7.6743 L61.5416,7.6589 L60.9961,7.6006 L60.4534,7.5212 L60.0693,7.4519 L59.5336,7.3338 L59.0044,7.1893 L58.4831,7.0188 L58.2891,6.948 L57.7837,6.735 L57.2967,6.4828 L56.9805,6.2915 L56.5346,5.9724 L56.1231,5.6099 L55.9643,5.4486 L55.6137,5.0271 L55.3183,4.5653 L55.2739,4.4832 L55.0479,3.9837 L54.8838,3.4605 L54.8686,3.3976 L54.7679,2.8585 L54.7156,2.3126 L54.708,2.0582 L54.7249,1.5101 L54.7922,0.9658 L54.9092,0.43 L54.989,0.1574 L55.1936,-0.3512 L55.4631,-0.8285 L55.7537,-1.2202 L56.1448,-1.6044 L56.584,-1.9323 L57.0634,-2.1981 L57.2177,-2.2666 L57.7164,-2.495 L58.2199,-2.7003 L58.7349,-2.8893 L59.2553,-3.0627 L59.2743,-3.0687 L59.7997,-3.2264 L60.3282,-3.3737 L60.5273,-3.4262 L61.0582,-3.5642 L61.5898,-3.6998 L62.1219,-3.8331 L62.1338,-3.836 L62.6675,-3.9627 L63.1968,-4.1068 L63.7211,-4.2682 L64.1619,-4.4186 L64.6686,-4.6284 L65.1518,-4.8876 L65.2494,-4.9477 L65.6838,-5.2702 L65.9676,-5.5703 L66.2076,-6.0075 L66.285,-6.4518 L66.1901,-6.9895 L65.9242,-7.4664 L65.5167,-7.8298 L65.4478,-7.8708 L64.9578,-8.1158 L64.5903,-8.2306 L64.0516,-8.3329 L63.5055,-8.3826 L63.3024,-8.3875 L62.7552,-8.3571 L62.2185,-8.2457 L61.7044,-8.0559 L61.2242,-7.7917 L61.1921,-7.7706 L60.7737,-7.4172 L60.4804,-7.0535 L60.1166,-6.6453 L59.6558,-6.3508 L59.1324,-6.1922 L58.6705,-6.1731 L55.329,-6.4226 L54.8198,-6.6077 L54.482,-7.0312 L54.4146,-7.5687 L54.436,-7.673 L54.4993,-7.8987 L54.6833,-8.4152 L54.9198,-8.91 L54.9984,-9.0496 L55.2992,-9.5081 L55.6466,-9.9323 L55.7686,-10.0618 L56.1683,-10.4373 L56.5992,-10.7766 L56.8517,-10.9491 L57.3243,-11.2274 L57.8131,-11.4764 L58.3161,-11.695 L58.8316,-11.8825 L59.3576,-12.0381 L59.6515,-12.1101 L60.1883,-12.2227 L60.7289,-12.3163 L61.2723,-12.3909 L61.8181,-12.4464 L62.3654,-12.4826 L62.9137,-12.4996 L63.3024,-12.5 L63.8509,-12.4909 L64.3989,-12.4667 L64.9461,-12.4276 L65.1713,-12.4071 L65.7161,-12.3429 L66.2577,-12.2562 L66.6725,-12.1741 L67.2056,-12.0448 L67.7312,-11.8877 L68.2477,-11.7033 L68.4594,-11.6187 L68.9576,-11.3893 L69.4357,-11.1207 L69.7857,-10.8901 L70.2188,-10.5537 L70.6184,-10.1781 L70.8202,-9.9586 L71.1586,-9.5271 L71.4491,-9.0621 L71.5488,-8.8725 L71.7692,-8.3704 L71.9383,-7.8487 L71.9762,-7.7001 L72.0845,-7.1625 L72.1529,-6.6183 L72.1759,-6.26 L72.1798,-5.7118 L72.1146,-5.1674 L71.9814,-4.6356 L71.7824,-4.1248 L71.7163,-3.9886 L71.4183,-3.5284 L71.0672,-3.1073 L70.668,-2.7314 L70.2266,-2.4063 L70.1716,-2.3712 L69.7021,-2.0876 L69.2144,-1.8368 L68.7106,-1.6198 L68.481,-1.5341 L67.9672,-1.3421 L67.4492,-1.1613 L66.9274,-0.992 L66.4021,-0.8341 L66.3347,-0.8148 L65.8061,-0.6679 L65.2763,-0.5258 L64.7452,-0.3884 L64.2128,-0.2559 L63.6793,-0.1282 L63.6512,-0.1216 L63.1211,0.0195 L62.7464,0.1269 L62.2237,0.2932 L62.064,0.3492 L61.5636,0.5719 L61.114,0.8848 L61.0197,0.9683 L60.6941,1.4053 L60.5647,1.9346 L60.564,1.9536 L60.6541,2.4915 L60.932,2.9609 L61.29,3.2592 L61.7822,3.499 L62.0411,3.5751 L62.5807,3.6724 L63.1275,3.7134 L63.2326,3.7148 L63.7786,3.671 L64.3059,3.5229 L64.7948,3.2759 L64.9681,3.1568 L65.3629,2.778 L65.426,2.6964 L65.8075,2.3045 L66.2808,2.0306 L66.8107,1.8952 L67.1435,1.8853 L70.5529,2.068 L71.0657,2.2425 L71.4124,2.6588 L71.4911,3.1948 Z M37.3604,-6.1012 L36.999,-5.6888 L36.724,-5.2983 L36.4581,-4.8188 L36.2774,-4.3901 L36.1175,-3.8656 L36.0364,-3.4704 L35.9696,-2.9261 L35.9478,-2.3867 L35.9666,-1.8386 L36.0367,-1.2947 L36.1576,-0.7598 L36.3009,-0.3115 L36.5232,0.1898 L36.802,0.6619 L37.1336,1.0985 L37.3604,1.3453 L37.7637,1.7166 L38.2077,2.0382 L38.6863,2.3058 L38.9408,2.4199 L39.4605,2.5948 L39.9962,2.7116 L40.5414,2.7692 L40.8482,2.7752 L41.3959,2.7511 L41.9378,2.6675 L42.4674,2.5252 L42.7577,2.4199 L43.2518,2.1823 L43.7157,1.8899 L44.1432,1.5466 L44.3534,1.3453 L44.7151,0.9332 L45.0267,0.4821 L45.2839,-0.0021 L45.4128,-0.3115 L45.5763,-0.8349 L45.6901,-1.3713 L45.7529,-1.9161 L45.766,-2.3867 L45.7434,-2.9347 L45.6774,-3.4706 L45.5594,-4.0061 L45.4362,-4.3905 L45.2188,-4.8938 L44.9897,-5.2985 L44.6707,-5.7444 L44.3534,-6.1012 L43.9479,-6.4703 L43.5038,-6.7918 L43.0266,-7.0618 L42.7577,-7.1846 L42.2392,-7.3627 L41.7041,-7.4823 L41.159,-7.5418 L40.8482,-7.5486 L40.3004,-7.5235 L39.7589,-7.4377 L39.2303,-7.2922 L38.9408,-7.1846 L38.4486,-6.943 L37.9874,-6.6465 L37.5632,-6.2991 Z M95,-11.5 L95,-2.685 L94.9996,-2.1364 L94.9834,-1.5881 L94.9515,-1.0405 L94.9038,-0.494 L94.8403,0.0509 L94.7612,0.5937 L94.6665,1.1341 L94.5562,1.6714 L94.5534,1.6843 L94.4215,2.2167 L94.2582,2.7403 L94.0642,3.2533 L93.84,3.754 L93.5866,4.2404 L93.3047,4.711 L93.2049,4.8637 L92.8694,5.2975 L92.4925,5.6958 L92.078,6.0548 L91.6299,6.3708 L91.1526,6.6408 L90.8039,6.8009 L90.2887,6.9891 L89.763,7.1456 L89.2287,7.2699 L88.6879,7.3615 L88.1426,7.4201 L87.5946,7.4455 L87.2256,7.4438 L86.6772,7.4292 L86.13,7.3905 L85.5851,7.3277 L85.0435,7.2409 L84.9387,7.2212 L84.4041,7.0987 L83.8796,6.9384 L83.3679,6.7411 L83.2166,6.6745 L82.7225,6.4368 L82.2558,6.1489 L81.8215,5.8141 L81.4245,5.4359 L81.0689,5.0185 L80.7586,4.5664 L80.7379,4.5324 L80.7379,11.5 L80.5912,12.0215 L80.1941,12.3899 L79.7379,12.5 L75.8819,12.5 L75.3604,12.3533 L74.992,11.9561 L74.8819,11.5 L74.8819,-11.5 L75.0286,-12.0215 L75.4258,-12.3899 L75.8819,-12.5 L79.7379,-12.5 L80.2594,-12.3533 L80.6279,-11.9561 L80.7379,-11.5 L80.7379,-2.685 L80.756,-2.1368 L80.8096,-1.5938 L80.9061,-1.054 L81.0012,-0.6883 L81.1835,-0.1712 L81.3956,0.2792 L81.6819,0.7467 L81.9413,1.0821 L82.3259,1.4726 L82.7615,1.8053 L83.2396,2.0734 L83.3561,2.126 L83.8743,2.3051 L84.41,2.4218 L84.9557,2.4744 L85.2025,2.4769 L85.7502,2.4497 L86.1455,2.3971 L86.6777,2.266 L86.877,2.1945 L87.3675,1.9503 L87.6295,1.7702 L88.031,1.3976 L88.2131,1.1714 L88.5013,0.7052 L88.6433,0.3988 L88.8276,-0.1177 L88.9642,-0.6488 L88.9706,-0.6797 L89.0611,-1.2206 L89.0986,-1.5657 L89.1336,-2.1132 L89.144,-2.6616 L89.1439,-2.6839 L89.1439,-11.5 L89.2907,-12.0215 L89.6878,-12.3899 L90.1439,-12.5 L94,-12.5 L94.5215,-12.3533 L94.8899,-11.9561 Z" style="fill:white;fill-rule:evenodd;0"/>
    </g>
</svg>
